<?xml version="1.0" encoding="iso-8859-1"?>
<!-- Generator: Adobe Illustrator 19.0.0, SVG Export Plug-In . SVG Version: 6.00 Build 0)  -->
<svg version="1.1" id="Capa_1" xmlns="http://www.w3.org/2000/svg" xmlns:xlink="http://www.w3.org/1999/xlink" x="0px" y="0px"
	 viewBox="0 0 512 512" style="enable-background:new 0 0 512 512;" xml:space="preserve">
<polygon style="fill:#B3B3B3;" points="504.463,411.509 504.463,441.657 474.316,441.657 444.169,381.362 "/>
<polygon style="fill:#CCCCCC;" points="474.316,381.362 474.316,441.657 287.403,441.657 257.256,381.362 "/>
<polygon style="fill:#FFCB63;" points="504.463,290.418 504.463,411.509 474.316,411.509 429.095,260.271 "/>
<polygon style="fill:#FFE2A8;" points="257.256,275.344 257.256,411.509 474.316,411.509 474.316,345.186 317.551,275.344 "/>
<polygon style="fill:#EBEBEB;" points="213.543,290.418 213.543,441.657 287.403,441.657 287.403,260.271 "/>
<polygon style="fill:#002F42;" points="474.316,275.344 474.316,345.186 444.169,345.186 383.874,275.344 "/>
<rect x="317.551" y="275.344" style="fill:#084F6D;" width="126.618" height="69.841"/>
<path style="fill:#FFE2A8;" d="M459.242,245.197h-30.147l45.221,45.221h30.147C504.463,265.547,484.114,245.197,459.242,245.197z"/>
<path style="fill:#FFF0D3;" d="M429.095,245.197H258.763c-24.871,0-45.221,20.349-45.221,45.221h260.773
	C474.316,265.547,453.967,245.197,429.095,245.197z"/>
<path style="fill:#B3B3B3;" d="M504.463,449.193H183.395c-4.162,0-7.537-3.374-7.537-7.537s3.374-7.537,7.537-7.537h321.068
	c4.163,0,7.537,3.374,7.537,7.537S508.627,449.193,504.463,449.193z"/>
<path style="fill:#353535;" d="M392.919,381.362l-27.132,45.221l27.132,45.221c24.975,0,45.221-20.246,45.221-45.221
	S417.893,381.362,392.919,381.362z"/>
<path style="fill:#4F4F4F;" d="M347.698,426.583c0,24.975,20.246,45.221,45.221,45.221v-90.442
	C367.944,381.362,347.698,401.608,347.698,426.583z"/>
<circle style="fill:#FFFFFF;" cx="392.919" cy="426.583" r="15.074"/>
<path style="fill:#B3B3B3;" d="M257.256,381.111c-4.162,0-7.537-3.374-7.537-7.537v-15.074c0-4.162,3.374-7.537,7.537-7.537
	c4.163,0,7.537,3.374,7.537,7.537v15.074C264.793,377.736,261.419,381.111,257.256,381.111z"/>
<path style="fill:#E18F4E;" d="M65.319,276.349v197.557l-24.992,8.331c-3.949,1.316-6.083,5.584-4.767,9.534
	c1.316,3.949,5.586,6.084,9.534,4.767l30.145-10.049c3.077-1.026,5.153-3.906,5.153-7.15V276.349H65.319z"/>
<path style="fill:#C27749;" d="M140.687,276.349v197.557l24.992,8.331c3.949,1.316,6.083,5.584,4.767,9.534
	c-1.316,3.949-5.586,6.084-9.534,4.767l-30.145-10.049c-3.077-1.026-5.153-3.906-5.153-7.15V276.349H140.687z"/>
<polygon style="fill:#084F6D;" points="148.224,276.349 87.929,231.129 118.077,318.986 118.077,353.727 148.224,353.727 "/>
<path style="fill:#DBF4FF;" d="M103.003,283.886H57.782C25.921,283.886,0,257.966,0,226.104s25.921-57.782,57.782-57.782h45.221
	v15.074H57.782c-23.55,0-42.709,19.159-42.709,42.709s19.159,42.709,42.709,42.709h45.221V283.886z"/>
<path style="fill:#116F97;" d="M57.782,276.349v77.378h30.147v-34.741c4.716,1.667,9.787,2.584,15.074,2.584
	c5.287,0,10.358-0.916,15.074-2.584v-87.858L57.782,276.349z"/>
<path style="fill:#A8E5FF;" d="M148.224,175.859c0-11.1-8.998-20.098-20.098-20.098H97.978l20.098,120.589h30.147v-17.586
	l-10.049-7.537l10.049-7.537v-15.074l-10.049-7.537l10.049-7.537v-15.074l-10.049-7.537l10.049-7.537V175.859z"/>
<path style="fill:#DBF4FF;" d="M97.978,155.761H77.88c-11.1,0-20.098,8.998-20.098,20.098v7.537l10.049,7.537l-10.049,7.537v15.074
	l10.049,7.537l-10.049,7.537v15.074l10.049,7.537l-10.049,7.537v17.586h60.294V175.859
	C118.077,164.759,109.079,155.761,97.978,155.761z"/>
<path style="fill:#C27749;" d="M103.003,35.172v90.442c24.975,0,45.221-20.246,45.221-45.221S127.978,35.172,103.003,35.172z"/>
<path style="fill:#E18F4E;" d="M118.077,80.393c0-24.975-6.749-45.221-15.074-45.221c-24.975,0-45.221,20.246-45.221,45.221
	s20.246,45.221,45.221,45.221C111.328,125.613,118.077,105.368,118.077,80.393z"/>
<polygon style="fill:#FFA754;" points="128.126,15.074 110.367,15.074 92.914,35.172 115.503,55.27 140.61,55.27 "/>
<polygon style="fill:#FFCB63;" points="77.88,15.074 65.397,55.27 115.503,55.27 110.367,15.074 "/>
<path style="fill:#FFA754;" d="M178.371,62.807H27.635c-4.162,0-7.537-3.374-7.537-7.537s3.374-7.537,7.537-7.537h150.736
	c4.162,0,7.537,3.374,7.537,7.537S182.533,62.807,178.371,62.807z"/>
<polygon style="fill:#49C9FF;" points="148.224,243.69 118.077,243.69 108.027,251.227 118.077,258.764 148.224,258.764 "/>
<rect x="57.782" y="243.69" style="fill:#7DD9FF;" width="60.294" height="15.074"/>
<polygon style="fill:#49C9FF;" points="148.224,213.543 118.077,213.543 108.027,221.08 118.077,228.616 148.224,228.616 "/>
<rect x="57.782" y="213.543" style="fill:#7DD9FF;" width="60.294" height="15.074"/>
<polygon style="fill:#49C9FF;" points="148.224,183.396 118.077,183.396 108.027,190.932 118.077,198.469 148.224,198.469 "/>
<rect x="57.782" y="183.396" style="fill:#7DD9FF;" width="60.294" height="15.074"/>
<path style="fill:#999999;" d="M246.705,193.445h-38.186v-15.074h38.186c4.156,0,7.537-3.38,7.537-7.537s-3.38-7.537-7.537-7.537
	h-38.186l20.098-15.074h18.088c12.467,0,22.61,10.143,22.61,22.61C269.315,183.302,259.171,193.445,246.705,193.445z"/>
<rect x="178.371" y="148.224" style="fill:#B3B3B3;" width="50.245" height="72.856"/>
<g>
</g>
<g>
</g>
<g>
</g>
<g>
</g>
<g>
</g>
<g>
</g>
<g>
</g>
<g>
</g>
<g>
</g>
<g>
</g>
<g>
</g>
<g>
</g>
<g>
</g>
<g>
</g>
<g>
</g>
</svg>
