<svg height="511pt" viewBox="-20 0 511 511.99994" width="511pt" xmlns="http://www.w3.org/2000/svg"><path d="m274.382812 289.34375v199.417969l-25.230468 8.410156c-3.984375 1.328125-6.136719 5.636719-4.8125 9.625 1.332031 3.984375 5.640625 6.140625 9.625 4.8125l30.429687-10.144531c3.105469-1.035156 5.203125-3.945313 5.203125-7.21875v-204.902344zm0 0" fill="#45decd"/><path d="m198.304688 289.34375v199.417969l25.226562 8.410156c3.984375 1.328125 6.140625 5.636719 4.8125 9.625-1.328125 3.984375-5.640625 6.140625-9.625 4.8125l-30.429688-10.144531c-3.105468-1.035156-5.199218-3.945313-5.199218-7.21875v-204.902344zm0 0" fill="#ff8a71"/><path d="m350.460938 289.59375v101.433594c0 4.195312 3.410156 7.609375 7.605468 7.609375h68.976563c3.277343 0 6.183593 2.09375 7.21875 5.203125l10.144531 30.429687c1.328125 3.984375-.824219 8.292969-4.8125 9.625-.796875.265625-1.609375.390625-2.40625.390625-3.1875 0-6.152344-2.015625-7.214844-5.203125l-8.410156-25.230469h-63.496094c-12.582031 0-22.824218-10.238281-22.824218-22.824218v-101.433594zm0 0" fill="#31c2b2"/><path d="m122.226562 289.59375v101.433594c0 4.195312-3.414062 7.609375-7.609374 7.609375h-68.976563c-3.273437 0-6.183594 2.09375-7.21875 5.203125l-10.144531 30.429687c-1.328125 3.988281.828125 8.292969 4.8125 9.625.800781.265625 1.609375.390625 2.40625.390625 3.1875 0 6.15625-2.015625 7.21875-5.203125l8.410156-25.230469h63.492188c12.585937 0 22.824218-10.238281 22.824218-22.824218v-101.433594zm0 0" fill="#ffad8a"/><path d="m464.578125 89.003906c-4.203125 0-7.609375 3.40625-7.609375 7.609375 0 46.144531-37.542969 83.6875-83.6875 83.6875h-53.253906v15.214844h53.253906c54.535156 0 98.902344-44.367187 98.902344-98.902344 0-4.203125-3.402344-7.609375-7.605469-7.609375zm0 0" fill="#7b68ab"/><path d="m8.109375 89.003906c4.199219 0 7.605469 3.40625 7.605469 7.609375 0 46.144531 37.542968 83.6875 83.6875 83.6875h53.253906v15.214844h-53.253906c-54.535156 0-98.902344-44.367187-98.902344-98.902344 0-4.203125 3.40625-7.609375 7.609375-7.609375zm0 0" fill="#974d34"/><path d="m297.203125 243.945312 15.21875 91.292969c25.207031 0 45.644531-20.4375 45.644531-45.644531zm0 0" fill="#31c2b2"/><path d="m266.773438 289.59375c0 25.207031 20.4375 45.644531 45.648437 45.644531v-91.292969zm0 0" fill="#45decd"/><path d="m342.851562 167.867188-30.429687-.011719-30.433594 60.867187 30.433594 60.859375 30.429687.011719 15.214844-60.863281zm0 0" fill="#e4e4e4"/><path d="m312.421875 167.855469-30.433594.011719-15.214843 60.863281 15.214843 60.863281 30.433594-.011719zm0 0" fill="#fff"/><path d="m271.851562 167.867188c-11.203124 0-20.285156 9.082031-20.285156 20.289062l-.007812 135.453125h30.429687v-155.742187zm0 0" fill="#9682c9"/><path d="m352.996094 167.867188h-10.144532v155.742187h30.429688v-135.453125c0-11.207031-9.082031-20.289062-20.285156-20.289062zm0 0" fill="#7b68ab"/><path d="m160.265625 259.160156v76.078125c25.207031 0 45.644531-20.433593 45.644531-45.644531zm0 0" fill="#ff8a71"/><path d="m114.617188 289.59375c0 25.207031 20.4375 45.644531 45.648437 45.644531 8.402344 0 15.214844-20.4375 15.214844-45.644531v-30.433594zm0 0" fill="#ffad8a"/><path d="m175.480469 289.59375h30.429687v-30.433594l-45.644531-50.71875zm0 0" fill="#7d402b"/><path d="m114.617188 259.160156v30.433594h60.863281v-81.152344zm0 0" fill="#974d34"/><path d="m200.839844 167.867188h-30.433594l20.289062 91.292968h30.429688v-71.003906c0-11.207031-9.082031-20.289062-20.285156-20.289062zm0 0" fill="#ffd63d"/><path d="m190.695312 188.15625c0-11.207031-9.082031-20.289062-20.289062-20.289062h-50.71875c-11.203125 0-20.285156 9.082031-20.285156 20.289062v71.003906h91.292968zm0 0" fill="#ffe682"/><path d="m339.808594 55.269531h-27.386719v82.167969c25.207031 0 45.644531-20.441406 45.644531-45.648438 0-14.929687-7.171875-28.199218-18.257812-36.519531zm0 0" fill="#f7983d"/><path d="m325.808594 70.121094c1.167968 6.453125 1.828125 13.828125 1.828125 21.667968 0 25.207032-6.816407 45.648438-15.214844 45.648438-25.207031 0-45.648437-20.441406-45.648437-45.648438zm0 0" fill="#fbbd57"/><path d="m339.808594 55.269531c-4.097656 5.460938-8.792969 10.441407-14 14.851563l-13.386719-23.980469c10.265625 0 19.757813 3.398437 27.386719 9.128906zm0 0" fill="#623221"/><path d="m266.773438 91.789062c0-25.207031 20.441406-45.648437 45.648437-45.648437 5.78125 0 10.820313 9.699219 13.386719 23.980469-15.914063 13.511718-36.527344 21.667968-59.035156 21.667968zm0 0" fill="#7d402b"/><path d="m160.261719 45.648438c25.210937 0 45.648437-20.4375 45.648437-45.648438-25.210937 0-45.648437 20.4375-45.648437 45.648438zm0 0" fill="#ffad8a"/><path d="m114.613281 0c0 25.210938 20.4375 45.648438 45.648438 45.648438 0-25.210938-20.4375-45.648438-45.648438-45.648438zm0 0" fill="#ffe682"/><path d="m160.265625 46.144531v47.019531h35.191406v-30.429687c-8.367187-10.125-21.023437-16.589844-35.191406-16.589844zm0 0" fill="#2d170f"/><path d="m125.070312 93.164062v-30.429687c8.367188-10.125 21.023438-16.589844 35.195313-16.589844 6.175781 0 11.480469 11.035157 13.863281 26.878907-.128906-.0625 0 20.140624 0 20.140624zm0 0" fill="#482518"/><path d="m195.457031 62.734375c-1.085937 4.613281-4.285156 8.65625-8.992187 10.613281-4.707032 1.949219-9.820313 1.351563-13.84375-1.144531l-12.355469 65.234375c25.207031 0 45.644531-20.441406 45.644531-45.648438 0-11.035156-3.929687-21.152343-10.453125-29.054687zm0 0" fill="#7d402b"/><path d="m174.128906 73.023438c-.515625-.242188-1.023437-.515626-1.507812-.820313-2.761719 3.84375-7.265625 6.347656-12.355469 6.347656-4.140625 0-7.882813-1.652343-10.632813-4.339843-.628906-.617188-1.207031-1.289063-1.722656-2.007813-4.027344 2.496094-9.140625 3.09375-13.847656 1.144531-2.058594-.851562-3.824219-2.109375-5.265625-3.640625-1.835937-1.957031-3.117187-4.378906-3.726563-6.972656-6.523437 7.902344-10.453124 18.019531-10.453124 29.054687 0 25.207032 20.441406 45.648438 45.648437 45.648438 8.398437 0 15.214844-20.441406 15.214844-45.648438 0-6.695312-.488281-13.042968-1.351563-18.765624zm0 0" fill="#974d34"/></svg>