<?xml version="1.0" encoding="iso-8859-1"?>
<!-- Generator: Adobe Illustrator 19.0.0, SVG Export Plug-In . SVG Version: 6.00 Build 0)  -->
<svg version="1.1" id="Capa_1" xmlns="http://www.w3.org/2000/svg" xmlns:xlink="http://www.w3.org/1999/xlink" x="0px" y="0px"
	 viewBox="0 0 512 512" style="enable-background:new 0 0 512 512;" xml:space="preserve">
<polygon style="fill:#CF301B;" points="223.271,395.29 253.717,456.182 423.199,456.182 453.645,395.29 "/>
<path style="fill:#A45E43;" d="M362.307,225.808h-15.223v-45.669c0-4.197-3.414-7.612-7.611-7.612h-35.521
	c-4.197,0-7.612,3.414-7.612,7.612v45.669h-15.223v-45.669c0-12.591,10.243-22.835,22.835-22.835h35.521
	c12.591,0,22.834,10.243,22.834,22.835V225.808z"/>
<path style="fill:#FF8646;" d="M124.321,296.848H78.652c-32.177,0-58.355-26.177-58.355-58.355s26.177-58.355,58.355-58.355h45.669
	v15.223H78.652c-23.783,0-43.132,19.348-43.132,43.132s19.348,43.132,43.132,43.132h45.669V296.848z"/>
<path style="fill:#FF6337;" d="M261.328,88.801c-4.204,0-7.611,3.408-7.611,7.611c0,46.167-37.559,83.726-83.726,83.726h-45.669
	v15.223h45.669c54.561,0,98.949-44.388,98.949-98.949C268.94,92.209,265.532,88.801,261.328,88.801z"/>
<path style="fill:#7DD9FF;" d="M86.264,289.237v199.515l-25.24,8.413c-3.988,1.329-6.143,5.64-4.815,9.628
	c1.329,3.988,5.642,6.144,9.628,4.815l30.444-10.149c3.108-1.036,5.204-3.945,5.204-7.221V289.237H86.264z"/>
<g>
	<path style="fill:#49C9FF;" d="M162.379,289.237v199.515l25.24,8.413c3.988,1.329,6.143,5.64,4.815,9.628
		c-1.329,3.988-5.642,6.144-9.628,4.815l-30.444-10.149c-3.108-1.036-5.204-3.945-5.204-7.221V289.237H162.379z"/>
	<path style="fill:#49C9FF;" d="M124.321,258.791v76.115c25.222,0,45.669-20.447,45.669-45.669L124.321,258.791z"/>
</g>
<path style="fill:#7DD9FF;" d="M139.544,289.237l-15.223-30.446l-45.669,30.446c0,25.222,20.447,45.669,45.669,45.669
	C132.728,334.906,139.544,314.459,139.544,289.237z"/>
<path style="fill:#FF6337;" d="M149.693,167.453h-30.446l20.297,121.784h30.446V187.75
	C169.99,176.54,160.903,167.453,149.693,167.453z"/>
<path style="fill:#FF8646;" d="M119.247,167.453H98.949c-11.21,0-20.297,9.087-20.297,20.297v101.487h60.892V187.75
	C139.544,176.54,130.457,167.453,119.247,167.453z"/>
<circle style="fill:#FFF0D3;" cx="124.321" cy="22.834" r="22.834"/>
<path style="fill:#FF8D7E;" d="M124.321,45.669V148.17l45.669-46.684V91.338C169.99,66.115,149.544,45.669,124.321,45.669z"/>
<path style="fill:#FFB4A9;" d="M124.321,45.669c-25.222,0-45.669,20.447-45.669,45.669v10.149l60.892,46.684V91.338
	C139.544,66.115,132.728,45.669,124.321,45.669z"/>
<path style="fill:#FFE2A8;" d="M143.308,101.487c-1.069-1.596-2.337-3.047-3.764-4.324l-15.223,70.291
	c25.222,0,45.669-20.447,45.669-45.669v-20.297H143.308z"/>
<path style="fill:#FFF0D3;" d="M139.544,121.784V97.162c-4.04-3.619-9.372-5.824-15.223-5.824c-7.917,0-14.89,4.03-18.987,10.149
	H78.652v20.297c0,25.222,20.447,45.669,45.669,45.669C132.728,167.453,139.544,147.006,139.544,121.784z"/>
<path style="fill:#A45E43;" d="M385.143,195.362h-7.613l-25.372,54.295l17.76,54.295h15.223c8.373,0,15.223-6.85,15.223-15.223
	v-78.145C400.365,202.212,393.514,195.362,385.143,195.362z"/>
<path style="fill:#C27749;" d="M281.117,195.362l-7.611,17.253l-7.612-17.253h-7.612c-8.372,0-15.222,6.85-15.222,15.223v78.145
	c0,8.373,6.85,15.223,15.223,15.223l63.937,30.446l47.699-30.446l-7.612-108.591H281.117z"/>
<rect x="265.895" y="195.362" style="fill:#85453D;" width="15.223" height="128.888"/>
<rect x="362.307" y="195.362" style="fill:#60312C;" width="15.223" height="128.888"/>
<path style="fill:#7DD9FF;" d="M197.391,334.398v30.446l76.115,30.446l-45.669-91.338
	C211.092,303.952,197.391,317.653,197.391,334.398z"/>
<g>
	<polygon style="fill:#A8E5FF;" points="314.608,303.952 352.666,395.29 227.837,395.29 243.06,303.952 	"/>
	<path style="fill:#A8E5FF;" d="M409.498,316.131c-5.024-6.698-15.984-12.178-24.357-12.178h-30.446v91.338l91.338-30.446
		L409.498,316.131z"/>
</g>
<path style="fill:#DBF4FF;" d="M379.052,316.131l36.535,48.714L322.22,395.29l7.611-91.338h24.864
	C363.068,303.952,374.029,309.433,379.052,316.131z"/>
<polygon style="fill:#B3B3B3;" points="430.811,395.29 430.811,456.182 491.703,456.182 491.703,425.736 "/>
<path style="fill:#CF301B;" d="M477.261,375.257l-31.227-10.413h-30.446l45.669,60.892h30.446V395.29
	C491.703,386.918,485.208,377.906,477.261,375.257z"/>
<path style="fill:#353535;" d="M430.811,425.736l-18.268,30.446l18.268,30.446c16.815,0,30.446-13.631,30.446-30.446
	S447.626,425.736,430.811,425.736z"/>
<path style="fill:#4F4F4F;" d="M400.365,456.182c0,16.815,13.631,30.446,30.446,30.446v-60.892
	C413.996,425.736,400.365,439.367,400.365,456.182z"/>
<polygon style="fill:#CCCCCC;" points="227.837,395.29 197.391,425.736 197.391,456.182 258.283,456.182 258.283,395.29 "/>
<rect x="314.608" y="303.952" style="fill:#FF4128;" width="15.223" height="71.041"/>
<g>
	<rect x="227.837" y="303.952" style="fill:#FF6753;" width="15.223" height="71.041"/>
	<polygon style="fill:#FF6753;" points="197.391,425.736 321.713,425.736 352.159,395.29 321.713,364.844 197.391,364.844 	"/>
</g>
<path style="fill:#FF4128;" d="M446.815,375.257l-31.227-10.413h-93.875v60.892h139.544V395.29
	C461.257,386.918,454.762,377.906,446.815,375.257z"/>
<path style="fill:#353535;" d="M258.282,425.736l-18.268,30.446l18.268,30.446c16.814,0,30.446-13.631,30.446-30.446
	S275.098,425.736,258.282,425.736z"/>
<path style="fill:#4F4F4F;" d="M227.836,456.182c0,16.814,13.631,30.446,30.446,30.446v-60.892
	C241.468,425.736,227.836,439.368,227.836,456.182z"/>
<g>
	<circle style="fill:#CCCCCC;" cx="258.283" cy="456.182" r="7.611"/>
	<circle style="fill:#CCCCCC;" cx="430.811" cy="456.182" r="7.611"/>
</g>
<g>
</g>
<g>
</g>
<g>
</g>
<g>
</g>
<g>
</g>
<g>
</g>
<g>
</g>
<g>
</g>
<g>
</g>
<g>
</g>
<g>
</g>
<g>
</g>
<g>
</g>
<g>
</g>
<g>
</g>
</svg>
